<svg width="1152" height="225" viewBox="0 0 1152 225" xmlns="http://www.w3.org/2000/svg">
<svg x="0" y="0" width="360" height="225" viewBox="0 0 3600 2250">
<rect x="0" y="0" width="3600" height="2250" opacity="1" fill="#FFFFFF" stroke="none"/>
<polyline fill="none" opacity="1" stroke="#666666" stroke-width="10" points="749,100 749,1749 "/>
<text x="670" y="1749" dy="0.5ex" text-anchor="end" font-family="sans-serif" font-size="145.16129032258064" opacity="1" fill="#666666">

</text>
<polyline fill="none" opacity="1" stroke="#666666" stroke-width="10" points="709,1749 749,1749 "/>
<text x="670" y="1612" dy="0.5ex" text-anchor="end" font-family="sans-serif" font-size="145.16129032258064" opacity="1" fill="#666666">
5
</text>
<polyline fill="none" opacity="1" stroke="#666666" stroke-width="10" points="709,1612 749,1612 "/>
<text x="670" y="1475" dy="0.5ex" text-anchor="end" font-family="sans-serif" font-size="145.16129032258064" opacity="1" fill="#666666">

</text>
<polyline fill="none" opacity="1" stroke="#666666" stroke-width="10" points="709,1475 749,1475 "/>
<text x="670" y="1337" dy="0.5ex" text-anchor="end" font-family="sans-serif" font-size="145.16129032258064" opacity="1" fill="#666666">

</text>
<polyline fill="none" opacity="1" stroke="#666666" stroke-width="10" points="709,1337 749,1337 "/>
<text x="670" y="1200" dy="0.5ex" text-anchor="end" font-family="sans-serif" font-size="145.16129032258064" opacity="1" fill="#666666">

</text>
<polyline fill="none" opacity="1" stroke="#666666" stroke-width="10" points="709,1200 749,1200 "/>
<text x="670" y="1062" dy="0.5ex" text-anchor="end" font-family="sans-serif" font-size="145.16129032258064" opacity="1" fill="#666666">

</text>
<polyline fill="none" opacity="1" stroke="#666666" stroke-width="10" points="709,1062 749,1062 "/>
<text x="670" y="925" dy="0.5ex" text-anchor="end" font-family="sans-serif" font-size="145.16129032258064" opacity="1" fill="#666666">
5.5
</text>
<polyline fill="none" opacity="1" stroke="#666666" stroke-width="10" points="709,925 749,925 "/>
<text x="670" y="788" dy="0.5ex" text-anchor="end" font-family="sans-serif" font-size="145.16129032258064" opacity="1" fill="#666666">

</text>
<polyline fill="none" opacity="1" stroke="#666666" stroke-width="10" points="709,788 749,788 "/>
<text x="670" y="650" dy="0.5ex" text-anchor="end" font-family="sans-serif" font-size="145.16129032258064" opacity="1" fill="#666666">

</text>
<polyline fill="none" opacity="1" stroke="#666666" stroke-width="10" points="709,650 749,650 "/>
<text x="670" y="513" dy="0.5ex" text-anchor="end" font-family="sans-serif" font-size="145.16129032258064" opacity="1" fill="#666666">

</text>
<polyline fill="none" opacity="1" stroke="#666666" stroke-width="10" points="709,513 749,513 "/>
<text x="670" y="375" dy="0.5ex" text-anchor="end" font-family="sans-serif" font-size="145.16129032258064" opacity="1" fill="#666666">

</text>
<polyline fill="none" opacity="1" stroke="#666666" stroke-width="10" points="709,375 749,375 "/>
<text x="670" y="238" dy="0.5ex" text-anchor="end" font-family="sans-serif" font-size="145.16129032258064" opacity="1" fill="#666666">
6
</text>
<polyline fill="none" opacity="1" stroke="#666666" stroke-width="10" points="709,238 749,238 "/>
<polyline fill="none" opacity="1" stroke="#666666" stroke-width="10" points="750,1750 3499,1750 "/>
<text x="826" y="1830" dy="0.76em" text-anchor="middle" font-family="sans-serif" font-size="145.16129032258064" opacity="1" fill="#666666">

</text>
<polyline fill="none" opacity="1" stroke="#666666" stroke-width="10" points="826,1750 826,1790 "/>
<text x="979" y="1830" dy="0.76em" text-anchor="middle" font-family="sans-serif" font-size="145.16129032258064" opacity="1" fill="#666666">
1
</text>
<polyline fill="none" opacity="1" stroke="#666666" stroke-width="10" points="979,1750 979,1790 "/>
<text x="1131" y="1830" dy="0.76em" text-anchor="middle" font-family="sans-serif" font-size="145.16129032258064" opacity="1" fill="#666666">

</text>
<polyline fill="none" opacity="1" stroke="#666666" stroke-width="10" points="1131,1750 1131,1790 "/>
<text x="1284" y="1830" dy="0.76em" text-anchor="middle" font-family="sans-serif" font-size="145.16129032258064" opacity="1" fill="#666666">

</text>
<polyline fill="none" opacity="1" stroke="#666666" stroke-width="10" points="1284,1750 1284,1790 "/>
<text x="1437" y="1830" dy="0.76em" text-anchor="middle" font-family="sans-serif" font-size="145.16129032258064" opacity="1" fill="#666666">

</text>
<polyline fill="none" opacity="1" stroke="#666666" stroke-width="10" points="1437,1750 1437,1790 "/>
<text x="1589" y="1830" dy="0.76em" text-anchor="middle" font-family="sans-serif" font-size="145.16129032258064" opacity="1" fill="#666666">

</text>
<polyline fill="none" opacity="1" stroke="#666666" stroke-width="10" points="1589,1750 1589,1790 "/>
<text x="1742" y="1830" dy="0.76em" text-anchor="middle" font-family="sans-serif" font-size="145.16129032258064" opacity="1" fill="#666666">
2
</text>
<polyline fill="none" opacity="1" stroke="#666666" stroke-width="10" points="1742,1750 1742,1790 "/>
<text x="1895" y="1830" dy="0.76em" text-anchor="middle" font-family="sans-serif" font-size="145.16129032258064" opacity="1" fill="#666666">

</text>
<polyline fill="none" opacity="1" stroke="#666666" stroke-width="10" points="1895,1750 1895,1790 "/>
<text x="2048" y="1830" dy="0.76em" text-anchor="middle" font-family="sans-serif" font-size="145.16129032258064" opacity="1" fill="#666666">

</text>
<polyline fill="none" opacity="1" stroke="#666666" stroke-width="10" points="2048,1750 2048,1790 "/>
<text x="2200" y="1830" dy="0.76em" text-anchor="middle" font-family="sans-serif" font-size="145.16129032258064" opacity="1" fill="#666666">

</text>
<polyline fill="none" opacity="1" stroke="#666666" stroke-width="10" points="2200,1750 2200,1790 "/>
<text x="2353" y="1830" dy="0.76em" text-anchor="middle" font-family="sans-serif" font-size="145.16129032258064" opacity="1" fill="#666666">

</text>
<polyline fill="none" opacity="1" stroke="#666666" stroke-width="10" points="2353,1750 2353,1790 "/>
<text x="2506" y="1830" dy="0.76em" text-anchor="middle" font-family="sans-serif" font-size="145.16129032258064" opacity="1" fill="#666666">
3
</text>
<polyline fill="none" opacity="1" stroke="#666666" stroke-width="10" points="2506,1750 2506,1790 "/>
<text x="2659" y="1830" dy="0.76em" text-anchor="middle" font-family="sans-serif" font-size="145.16129032258064" opacity="1" fill="#666666">

</text>
<polyline fill="none" opacity="1" stroke="#666666" stroke-width="10" points="2659,1750 2659,1790 "/>
<text x="2811" y="1830" dy="0.76em" text-anchor="middle" font-family="sans-serif" font-size="145.16129032258064" opacity="1" fill="#666666">

</text>
<polyline fill="none" opacity="1" stroke="#666666" stroke-width="10" points="2811,1750 2811,1790 "/>
<text x="2964" y="1830" dy="0.76em" text-anchor="middle" font-family="sans-serif" font-size="145.16129032258064" opacity="1" fill="#666666">

</text>
<polyline fill="none" opacity="1" stroke="#666666" stroke-width="10" points="2964,1750 2964,1790 "/>
<text x="3117" y="1830" dy="0.76em" text-anchor="middle" font-family="sans-serif" font-size="145.16129032258064" opacity="1" fill="#666666">

</text>
<polyline fill="none" opacity="1" stroke="#666666" stroke-width="10" points="3117,1750 3117,1790 "/>
<text x="3269" y="1830" dy="0.76em" text-anchor="middle" font-family="sans-serif" font-size="145.16129032258064" opacity="1" fill="#666666">
4
</text>
<polyline fill="none" opacity="1" stroke="#666666" stroke-width="10" points="3269,1750 3269,1790 "/>
<circle cx="979" cy="1612" r="115" opacity="1" fill="#5E81B5" stroke="none" stroke-width="1"/>
<circle cx="979" cy="1612" r="115" opacity="0.4" fill="none" stroke="#000000" stroke-width="10"/>
<circle cx="3269" cy="238" r="200" opacity="1" fill="#5E81B5" stroke="none" stroke-width="1"/>
<circle cx="3269" cy="238" r="200" opacity="0.4" fill="none" stroke="#000000" stroke-width="10"/>
<line x1="979.2" y1="1790.0" x2="979.2" y2="1820.0" stroke="#666" stroke-width="10"/>
<line x1="1743.1" y1="1790.0" x2="1743.1" y2="1820.0" stroke="#666" stroke-width="10"/>
<line x1="2506.9" y1="1790.0" x2="2506.9" y2="1820.0" stroke="#666" stroke-width="10"/>
<line x1="3270.8" y1="1790.0" x2="3270.8" y2="1820.0" stroke="#666" stroke-width="10"/>
<line x1="710.0" y1="1612.5" x2="680.0" y2="1612.5" stroke="#666" stroke-width="10"/>
<line x1="710.0" y1="925.0" x2="680.0" y2="925.0" stroke="#666" stroke-width="10"/>
<line x1="710.0" y1="237.5" x2="680.0" y2="237.5" stroke="#666" stroke-width="10"/>
</svg>
<svg x="396" y="50" width="360" height="124" viewBox="0 0 360 124">
<polyline points="62.65,97.85 75.14,99.34 87.64,100.65 100.13,101.79 112.62,102.75 125.11,103.54 137.60,104.15 150.09,104.58 162.58,104.85 175.07,104.93 187.56,104.85 200.06,104.58 212.55,104.15 225.04,103.54 237.53,102.75 250.02,101.79 262.51,100.65 275.00,99.34 287.49,97.85" fill="none" stroke="rgb(153,153,153)" stroke-width="1.50" stroke-linejoin="round" stroke-linecap="butt"/>
<polygon points="287.49,97.85 279.03,102.94 278.08,94.89" fill="rgb(153,153,153)"/>
<polyline points="287.49,91.69 275.00,90.21 262.51,88.89 250.02,87.76 237.53,86.80 225.04,86.01 212.55,85.40 200.06,84.96 187.56,84.70 175.07,84.61 162.58,84.70 150.09,84.96 137.60,85.40 125.11,86.01 112.62,86.80 100.13,87.76 87.64,88.89 75.14,90.21 62.65,91.69" fill="none" stroke="rgb(153,153,153)" stroke-width="1.50" stroke-linejoin="round" stroke-linecap="butt"/>
<polygon points="62.65,91.69 71.11,86.61 72.07,94.65" fill="rgb(153,153,153)"/>
<polyline points="324.75,73.73 333.47,66.02 338.92,60.56 343.02,54.02 345.56,46.73 346.42,39.06 345.55,31.39 343.00,24.10 338.89,17.57 333.43,12.11 326.89,8.01 319.61,5.46 311.93,4.59 304.26,5.46 296.98,8.01 290.44,12.11 284.98,17.57 280.87,24.10 278.31,31.39 277.45,39.06 278.30,46.73 280.85,54.02 284.95,60.56 290.40,66.02 299.12,73.73" fill="none" stroke="rgb(153,153,153)" stroke-width="1.50" stroke-linejoin="round" stroke-linecap="butt"/>
<ellipse cx="38.21" cy="94.77" rx="24.64" ry="24.64" fill="rgb(66,116,183)" stroke="rgb(66,116,183)" stroke-width="0.50"/>
<ellipse cx="311.93" cy="94.77" rx="24.64" ry="24.64" fill="rgb(66,116,183)" stroke="rgb(66,116,183)" stroke-width="0.50"/>
</svg>
<svg x="792" y="32" width="360" height="162" viewBox="0 0 360 162">
<polyline points="180.00,17.51 21.27,81.00" fill="none" stroke="rgb(153,153,153)" stroke-width="1.44" stroke-linejoin="round" stroke-linecap="butt"/>
<polyline points="180.00,17.51 116.51,81.00" fill="none" stroke="rgb(153,153,153)" stroke-width="1.44" stroke-linejoin="round" stroke-linecap="butt"/>
<polyline points="180.00,17.51 243.49,81.00" fill="none" stroke="rgb(153,153,153)" stroke-width="1.44" stroke-linejoin="round" stroke-linecap="butt"/>
<polyline points="180.00,17.51 338.73,81.00" fill="none" stroke="rgb(153,153,153)" stroke-width="1.44" stroke-linejoin="round" stroke-linecap="butt"/>
<polyline points="116.51,81.00 84.76,144.49" fill="none" stroke="rgb(153,153,153)" stroke-width="1.44" stroke-linejoin="round" stroke-linecap="butt"/>
<polyline points="116.51,81.00 148.25,144.49" fill="none" stroke="rgb(153,153,153)" stroke-width="1.44" stroke-linejoin="round" stroke-linecap="butt"/>
<polyline points="243.49,81.00 211.75,144.49" fill="none" stroke="rgb(153,153,153)" stroke-width="1.44" stroke-linejoin="round" stroke-linecap="butt"/>
<polyline points="243.49,81.00 275.24,144.49" fill="none" stroke="rgb(153,153,153)" stroke-width="1.44" stroke-linejoin="round" stroke-linecap="butt"/>
<rect x="163.49" y="6.08" width="33.02" height="22.86" fill="rgb(255,242,217)" stroke="rgb(214,122,0)" stroke-width="0.50"/>
<rect x="13.33" y="69.57" width="15.87" height="22.86" fill="rgb(255,255,255)" stroke="rgb(0,0,0)" stroke-width="0.50"/>
<rect x="97.14" y="69.57" width="38.73" height="22.86" fill="rgb(255,242,217)" stroke="rgb(214,122,0)" stroke-width="0.50"/>
<rect x="76.83" y="133.06" width="15.87" height="22.86" fill="rgb(255,255,255)" stroke="rgb(0,0,0)" stroke-width="0.50"/>
<rect x="140.32" y="133.06" width="15.87" height="22.86" fill="rgb(255,255,255)" stroke="rgb(0,0,0)" stroke-width="0.50"/>
<rect x="224.13" y="69.57" width="38.73" height="22.86" fill="rgb(255,242,217)" stroke="rgb(214,122,0)" stroke-width="0.50"/>
<rect x="203.81" y="133.06" width="15.87" height="22.86" fill="rgb(255,255,255)" stroke="rgb(0,0,0)" stroke-width="0.50"/>
<rect x="267.30" y="133.06" width="15.87" height="22.86" fill="rgb(255,255,255)" stroke="rgb(0,0,0)" stroke-width="0.50"/>
<rect x="330.79" y="69.57" width="15.87" height="22.86" fill="rgb(255,255,255)" stroke="rgb(0,0,0)" stroke-width="0.50"/>
<text x="180.00" y="17.51" fill="rgb(214,122,0)" font-size="13" font-weight="normal" font-style="normal" text-anchor="middle" dominant-baseline="central">Plus</text>
<text x="21.27" y="81.00" fill="rgb(0,0,0)" font-size="13" font-weight="normal" font-style="normal" text-anchor="middle" dominant-baseline="central">a</text>
<text x="116.51" y="81.00" fill="rgb(214,122,0)" font-size="13" font-weight="normal" font-style="normal" text-anchor="middle" dominant-baseline="central">Power</text>
<text x="84.76" y="144.49" fill="rgb(0,0,0)" font-size="13" font-weight="normal" font-style="normal" text-anchor="middle" dominant-baseline="central">b</text>
<text x="148.25" y="144.49" fill="rgb(0,0,0)" font-size="13" font-weight="normal" font-style="normal" text-anchor="middle" dominant-baseline="central">2</text>
<text x="243.49" y="81.00" fill="rgb(214,122,0)" font-size="13" font-weight="normal" font-style="normal" text-anchor="middle" dominant-baseline="central">Power</text>
<text x="211.75" y="144.49" fill="rgb(0,0,0)" font-size="13" font-weight="normal" font-style="normal" text-anchor="middle" dominant-baseline="central">c</text>
<text x="275.24" y="144.49" fill="rgb(0,0,0)" font-size="13" font-weight="normal" font-style="normal" text-anchor="middle" dominant-baseline="central">3</text>
<text x="338.73" y="81.00" fill="rgb(0,0,0)" font-size="13" font-weight="normal" font-style="normal" text-anchor="middle" dominant-baseline="central">d</text>
</svg>
</svg>
