<svg width="1152" height="225" viewBox="0 0 1152 225" xmlns="http://www.w3.org/2000/svg">
<svg x="0" y="0" width="360" height="225" viewBox="0 0 3600 2250">
<rect x="0" y="0" width="3600" height="2250" opacity="1" fill="#FFFFFF" stroke="none"/>
<polyline fill="none" opacity="1" stroke="#666666" stroke-width="10" points="749,100 749,1749 "/>
<text x="670" y="1688" dy="0.5ex" text-anchor="end" font-family="sans-serif" font-size="145.16129032258064" opacity="1" fill="#666666">
-1
</text>
<polyline fill="none" opacity="1" stroke="#666666" stroke-width="10" points="709,1688 749,1688 "/>
<text x="670" y="1612" dy="0.5ex" text-anchor="end" font-family="sans-serif" font-size="145.16129032258064" opacity="1" fill="#666666">

</text>
<polyline fill="none" opacity="1" stroke="#666666" stroke-width="10" points="709,1612 749,1612 "/>
<text x="670" y="1536" dy="0.5ex" text-anchor="end" font-family="sans-serif" font-size="145.16129032258064" opacity="1" fill="#666666">

</text>
<polyline fill="none" opacity="1" stroke="#666666" stroke-width="10" points="709,1536 749,1536 "/>
<text x="670" y="1459" dy="0.5ex" text-anchor="end" font-family="sans-serif" font-size="145.16129032258064" opacity="1" fill="#666666">

</text>
<polyline fill="none" opacity="1" stroke="#666666" stroke-width="10" points="709,1459 749,1459 "/>
<text x="670" y="1383" dy="0.5ex" text-anchor="end" font-family="sans-serif" font-size="145.16129032258064" opacity="1" fill="#666666">

</text>
<polyline fill="none" opacity="1" stroke="#666666" stroke-width="10" points="709,1383 749,1383 "/>
<text x="670" y="1307" dy="0.5ex" text-anchor="end" font-family="sans-serif" font-size="145.16129032258064" opacity="1" fill="#666666">
-0.5
</text>
<polyline fill="none" opacity="1" stroke="#666666" stroke-width="10" points="709,1307 749,1307 "/>
<text x="670" y="1230" dy="0.5ex" text-anchor="end" font-family="sans-serif" font-size="145.16129032258064" opacity="1" fill="#666666">

</text>
<polyline fill="none" opacity="1" stroke="#666666" stroke-width="10" points="709,1230 749,1230 "/>
<text x="670" y="1154" dy="0.5ex" text-anchor="end" font-family="sans-serif" font-size="145.16129032258064" opacity="1" fill="#666666">

</text>
<polyline fill="none" opacity="1" stroke="#666666" stroke-width="10" points="709,1154 749,1154 "/>
<text x="670" y="1078" dy="0.5ex" text-anchor="end" font-family="sans-serif" font-size="145.16129032258064" opacity="1" fill="#666666">

</text>
<polyline fill="none" opacity="1" stroke="#666666" stroke-width="10" points="709,1078 749,1078 "/>
<text x="670" y="1001" dy="0.5ex" text-anchor="end" font-family="sans-serif" font-size="145.16129032258064" opacity="1" fill="#666666">

</text>
<polyline fill="none" opacity="1" stroke="#666666" stroke-width="10" points="709,1001 749,1001 "/>
<text x="670" y="925" dy="0.5ex" text-anchor="end" font-family="sans-serif" font-size="145.16129032258064" opacity="1" fill="#666666">
0
</text>
<polyline fill="none" opacity="1" stroke="#666666" stroke-width="10" points="709,925 749,925 "/>
<text x="670" y="849" dy="0.5ex" text-anchor="end" font-family="sans-serif" font-size="145.16129032258064" opacity="1" fill="#666666">

</text>
<polyline fill="none" opacity="1" stroke="#666666" stroke-width="10" points="709,849 749,849 "/>
<text x="670" y="772" dy="0.5ex" text-anchor="end" font-family="sans-serif" font-size="145.16129032258064" opacity="1" fill="#666666">

</text>
<polyline fill="none" opacity="1" stroke="#666666" stroke-width="10" points="709,772 749,772 "/>
<text x="670" y="696" dy="0.5ex" text-anchor="end" font-family="sans-serif" font-size="145.16129032258064" opacity="1" fill="#666666">

</text>
<polyline fill="none" opacity="1" stroke="#666666" stroke-width="10" points="709,696 749,696 "/>
<text x="670" y="620" dy="0.5ex" text-anchor="end" font-family="sans-serif" font-size="145.16129032258064" opacity="1" fill="#666666">

</text>
<polyline fill="none" opacity="1" stroke="#666666" stroke-width="10" points="709,620 749,620 "/>
<text x="670" y="543" dy="0.5ex" text-anchor="end" font-family="sans-serif" font-size="145.16129032258064" opacity="1" fill="#666666">
0.5
</text>
<polyline fill="none" opacity="1" stroke="#666666" stroke-width="10" points="709,543 749,543 "/>
<text x="670" y="467" dy="0.5ex" text-anchor="end" font-family="sans-serif" font-size="145.16129032258064" opacity="1" fill="#666666">

</text>
<polyline fill="none" opacity="1" stroke="#666666" stroke-width="10" points="709,467 749,467 "/>
<text x="670" y="391" dy="0.5ex" text-anchor="end" font-family="sans-serif" font-size="145.16129032258064" opacity="1" fill="#666666">

</text>
<polyline fill="none" opacity="1" stroke="#666666" stroke-width="10" points="709,391 749,391 "/>
<text x="670" y="314" dy="0.5ex" text-anchor="end" font-family="sans-serif" font-size="145.16129032258064" opacity="1" fill="#666666">

</text>
<polyline fill="none" opacity="1" stroke="#666666" stroke-width="10" points="709,314 749,314 "/>
<text x="670" y="238" dy="0.5ex" text-anchor="end" font-family="sans-serif" font-size="145.16129032258064" opacity="1" fill="#666666">

</text>
<polyline fill="none" opacity="1" stroke="#666666" stroke-width="10" points="709,238 749,238 "/>
<polyline fill="none" opacity="1" stroke="#666666" stroke-width="10" points="750,1750 3499,1750 "/>
<text x="750" y="1830" dy="0.76em" text-anchor="middle" font-family="sans-serif" font-size="145.16129032258064" opacity="1" fill="#666666">
0
</text>
<polyline fill="none" opacity="1" stroke="#666666" stroke-width="10" points="750,1750 750,1790 "/>
<text x="968" y="1830" dy="0.76em" text-anchor="middle" font-family="sans-serif" font-size="145.16129032258064" opacity="1" fill="#666666">

</text>
<polyline fill="none" opacity="1" stroke="#666666" stroke-width="10" points="968,1750 968,1790 "/>
<text x="1187" y="1830" dy="0.76em" text-anchor="middle" font-family="sans-serif" font-size="145.16129032258064" opacity="1" fill="#666666">

</text>
<polyline fill="none" opacity="1" stroke="#666666" stroke-width="10" points="1187,1750 1187,1790 "/>
<text x="1406" y="1830" dy="0.76em" text-anchor="middle" font-family="sans-serif" font-size="145.16129032258064" opacity="1" fill="#666666">

</text>
<polyline fill="none" opacity="1" stroke="#666666" stroke-width="10" points="1406,1750 1406,1790 "/>
<text x="1625" y="1830" dy="0.76em" text-anchor="middle" font-family="sans-serif" font-size="145.16129032258064" opacity="1" fill="#666666">

</text>
<polyline fill="none" opacity="1" stroke="#666666" stroke-width="10" points="1625,1750 1625,1790 "/>
<text x="1843" y="1830" dy="0.76em" text-anchor="middle" font-family="sans-serif" font-size="145.16129032258064" opacity="1" fill="#666666">
5
</text>
<polyline fill="none" opacity="1" stroke="#666666" stroke-width="10" points="1843,1750 1843,1790 "/>
<text x="2062" y="1830" dy="0.76em" text-anchor="middle" font-family="sans-serif" font-size="145.16129032258064" opacity="1" fill="#666666">

</text>
<polyline fill="none" opacity="1" stroke="#666666" stroke-width="10" points="2062,1750 2062,1790 "/>
<text x="2281" y="1830" dy="0.76em" text-anchor="middle" font-family="sans-serif" font-size="145.16129032258064" opacity="1" fill="#666666">

</text>
<polyline fill="none" opacity="1" stroke="#666666" stroke-width="10" points="2281,1750 2281,1790 "/>
<text x="2500" y="1830" dy="0.76em" text-anchor="middle" font-family="sans-serif" font-size="145.16129032258064" opacity="1" fill="#666666">

</text>
<polyline fill="none" opacity="1" stroke="#666666" stroke-width="10" points="2500,1750 2500,1790 "/>
<text x="2718" y="1830" dy="0.76em" text-anchor="middle" font-family="sans-serif" font-size="145.16129032258064" opacity="1" fill="#666666">

</text>
<polyline fill="none" opacity="1" stroke="#666666" stroke-width="10" points="2718,1750 2718,1790 "/>
<text x="2937" y="1830" dy="0.76em" text-anchor="middle" font-family="sans-serif" font-size="145.16129032258064" opacity="1" fill="#666666">
10
</text>
<polyline fill="none" opacity="1" stroke="#666666" stroke-width="10" points="2937,1750 2937,1790 "/>
<text x="3156" y="1830" dy="0.76em" text-anchor="middle" font-family="sans-serif" font-size="145.16129032258064" opacity="1" fill="#666666">

</text>
<polyline fill="none" opacity="1" stroke="#666666" stroke-width="10" points="3156,1750 3156,1790 "/>
<text x="3375" y="1830" dy="0.76em" text-anchor="middle" font-family="sans-serif" font-size="145.16129032258064" opacity="1" fill="#666666">

</text>
<polyline fill="none" opacity="1" stroke="#666666" stroke-width="10" points="3375,1750 3375,1790 "/>
<polyline fill="none" opacity="1" stroke="#CCCCCC" stroke-width="10" points="750,925 3499,925 "/>
<polyline fill="none" opacity="1" stroke="#5E81B5" stroke-width="15" points="750,925 763,877 777,829 791,781 805,734 819,688 832,643 846,598 860,556 874,514 888,474 901,436 915,400 929,366 943,335 957,305 971,278 984,254 998,232 1012,213 1026,197 1033,190 1040,184 1047,179 1053,174 1057,172 1060,170 1064,168 1067,167 1071,166 1074,164 1076,164 1078,163 1079,163 1081,163 1083,162 1084,162 1085,162 1086,162 1087,162 1088,162 1089,162 1089,162 1090,162 1090,162 1091,162 1091,162 1091,162 1091,162 1092,162 1092,162 1092,162 1092,162 1092,162 1093,162 1093,162 1093,162 1093,162 1094,162 1094,162 1094,162 1094,162 1094,162 1095,162 1095,162 1095,162 1096,162 1096,162 1097,162 1097,162 1098,162 1099,162 1100,162 1102,162 1103,162 1105,163 1107,163 1109,163 1112,164 1116,166 1119,167 1122,168 1129,172 1136,176 1143,181 1150,187 1164,201 1178,218 1192,238 1205,260 1219,285 1233,312 1247,342 1261,375 1274,409 1288,446 1302,484 1316,524 1330,566 1344,609 1357,654 1371,699 1385,746 1399,793 1413,841 1426,889 1440,937 1454,985 1468,1033 1482,1081 1495,1127 1509,1173 1523,1219 1537,1262 1551,1305 1565,1346 1578,1385 1592,1423 1606,1458 1620,1492 1634,1523 1647,1552 1661,1578 1675,1602 1689,1623 1703,1641 1710,1649 1716,1656 1723,1663 1730,1669 1737,1674 1744,1678 1748,1680 1751,1682 1754,1683 1758,1684 1761,1686 1763,1686 1765,1687 1767,1687 1768,1687 1770,1688 1772,1688 1773,1688 1773,1688 1774,1688 1775,1688 1776,1688 1776,1688 1777,1688 1777,1688 1778,1688 1778,1688 1778,1688 1779,1688 1779,1688 1779,1688 1779,1688 1780,1688 1780,1688 1780,1688 1780,1688 1780,1688 1781,1688 1781,1688 1781,1688 1781,1688 1781,1688 1782,1688 1782,1688 1782,1688 1783,1688 1783,1688 1783,1688 1784,1688 1785,1688 1786,1688 1786,1688 1787,1688 1789,1688 1791,1688 1792,1687 1794,1687 1796,1687 1799,1686 1803,1684 1806,1683 1810,1682 1813,1680 1820,1676 1827,1671 1834,1666 1841,1659 1855,1645 1868,1627 1882,1607 1896,1584 1910,1559 1924,1530 1938,1500 1951,1467 1965,1432 1979,1395 1993,1356 2007,1315 2020,1273 2034,1230 2048,1185 2062,1139 2076,1092 2089,1045 2103,997 2117,949 2131,901 2145,853 2159,805 2172,758 2186,711 2200,665 2214,620 2228,577 2241,535 2255,494 2269,455 2283,418 2297,383 2310,350 2324,320 2338,291 2352,266 2366,243 2380,223 2393,205 2400,197 2407,190 2414,184 2421,179 2428,174 2431,172 2435,170 2438,168 2442,167 2445,166 2449,164 2450,164 2452,163 2454,163 2456,163 2457,162 2459,162 2460,162 2461,162 2462,162 2462,162 2463,162 2464,162 2464,162 2465,162 2465,162 2465,162 2466,162 2466,162 2466,162 2466,162 2467,162 2467,162 2467,162 2467,162 2467,162 2468,162 2468,162 2468,162 2468,162 2468,162 2469,162 2469,162 2469,162 2469,162 2470,162 2470,162 2471,162 2471,162 2472,162 2473,162 2474,162 2475,162 2476,162 2478,162 2480,163 2481,163 2483,163 2487,164 2490,166 2494,167 2497,168 2504,172 2511,176 2518,181 2525,187 2532,194 2545,209 2559,227 2573,248 2587,272 2601,298 2614,327 2628,358 2642,392 2656,427 2670,465 2683,504 2697,545 2711,588 2725,631 2739,677 2753,723 2766,769 2780,817 2794,865 2808,913 2822,961 2835,1009 2849,1057 2863,1104 2877,1151 2891,1196 2904,1241 2918,1284 2932,1326 2946,1366 2960,1404 2974,1441 2987,1475 3001,1508 3015,1538 3029,1565 3043,1590 3056,1612 3070,1632 3084,1649 3091,1656 3098,1663 3105,1669 3112,1674 3119,1678 3122,1680 3126,1682 3129,1683 3132,1684 3136,1686 3138,1686 3139,1687 3141,1687 3143,1687 3145,1688 3146,1688 3147,1688 3148,1688 3149,1688 3150,1688 3151,1688 3151,1688 3151,1688 3152,1688 3152,1688 3153,1688 3153,1688 3153,1688 3153,1688 3154,1688 3154,1688 3154,1688 3154,1688 3154,1688 3155,1688 3155,1688 3155,1688 3155,1688 3156,1688 3156,1688 3156,1688 3156,1688 3156,1688 3157,1688 3157,1688 3157,1688 3158,1688 3158,1688 3159,1688 3160,1688 3161,1688 3162,1688 3164,1688 3165,1688 3167,1687 3169,1687 3170,1687 3174,1686 3177,1684 3181,1683 3184,1682 3188,1680 3195,1676 3201,1671 3208,1666 3222,1653 3236,1637 3250,1618 3264,1596 3277,1572 3291,1545 3305,1515 3319,1484 3333,1450 3347,1414 3360,1376 3374,1336 3388,1294 3402,1252 3416,1207 3429,1162 3443,1116 3457,1069 3471,1021 3485,973 3499,925 "/>
<line x1="750.0" y1="1790.0" x2="750.0" y2="1820.0" stroke="#666" stroke-width="10"/>
<line x1="1844.2" y1="1790.0" x2="1844.2" y2="1820.0" stroke="#666" stroke-width="10"/>
<line x1="2938.4" y1="1790.0" x2="2938.4" y2="1820.0" stroke="#666" stroke-width="10"/>
<line x1="710.0" y1="1688.9" x2="680.0" y2="1688.9" stroke="#666" stroke-width="10"/>
<line x1="710.0" y1="1307.0" x2="680.0" y2="1307.0" stroke="#666" stroke-width="10"/>
<line x1="710.0" y1="925.0" x2="680.0" y2="925.0" stroke="#666" stroke-width="10"/>
<line x1="710.0" y1="543.0" x2="680.0" y2="543.0" stroke="#666" stroke-width="10"/>
<line x1="710.0" y1="161.1" x2="680.0" y2="161.1" stroke="#666" stroke-width="10"/>
</svg>
<svg x="396" y="0" width="360" height="225" viewBox="0 0 3600 2250">
<rect x="0" y="0" width="3600" height="2250" opacity="1" fill="#FFFFFF" stroke="none"/>
<polyline fill="none" opacity="1" stroke="#666666" stroke-width="10" points="749,100 749,1749 "/>
<text x="670" y="1749" dy="0.5ex" text-anchor="end" font-family="sans-serif" font-size="145.16129032258064" opacity="1" fill="#666666">
0
</text>
<polyline fill="none" opacity="1" stroke="#666666" stroke-width="10" points="709,1749 749,1749 "/>
<text x="670" y="1666" dy="0.5ex" text-anchor="end" font-family="sans-serif" font-size="145.16129032258064" opacity="1" fill="#666666">

</text>
<polyline fill="none" opacity="1" stroke="#666666" stroke-width="10" points="709,1666 749,1666 "/>
<text x="670" y="1583" dy="0.5ex" text-anchor="end" font-family="sans-serif" font-size="145.16129032258064" opacity="1" fill="#666666">

</text>
<polyline fill="none" opacity="1" stroke="#666666" stroke-width="10" points="709,1583 749,1583 "/>
<text x="670" y="1500" dy="0.5ex" text-anchor="end" font-family="sans-serif" font-size="145.16129032258064" opacity="1" fill="#666666">

</text>
<polyline fill="none" opacity="1" stroke="#666666" stroke-width="10" points="709,1500 749,1500 "/>
<text x="670" y="1416" dy="0.5ex" text-anchor="end" font-family="sans-serif" font-size="145.16129032258064" opacity="1" fill="#666666">
2
</text>
<polyline fill="none" opacity="1" stroke="#666666" stroke-width="10" points="709,1416 749,1416 "/>
<text x="670" y="1333" dy="0.5ex" text-anchor="end" font-family="sans-serif" font-size="145.16129032258064" opacity="1" fill="#666666">

</text>
<polyline fill="none" opacity="1" stroke="#666666" stroke-width="10" points="709,1333 749,1333 "/>
<text x="670" y="1250" dy="0.5ex" text-anchor="end" font-family="sans-serif" font-size="145.16129032258064" opacity="1" fill="#666666">

</text>
<polyline fill="none" opacity="1" stroke="#666666" stroke-width="10" points="709,1250 749,1250 "/>
<text x="670" y="1167" dy="0.5ex" text-anchor="end" font-family="sans-serif" font-size="145.16129032258064" opacity="1" fill="#666666">

</text>
<polyline fill="none" opacity="1" stroke="#666666" stroke-width="10" points="709,1167 749,1167 "/>
<text x="670" y="1083" dy="0.5ex" text-anchor="end" font-family="sans-serif" font-size="145.16129032258064" opacity="1" fill="#666666">
4
</text>
<polyline fill="none" opacity="1" stroke="#666666" stroke-width="10" points="709,1083 749,1083 "/>
<text x="670" y="1000" dy="0.5ex" text-anchor="end" font-family="sans-serif" font-size="145.16129032258064" opacity="1" fill="#666666">

</text>
<polyline fill="none" opacity="1" stroke="#666666" stroke-width="10" points="709,1000 749,1000 "/>
<text x="670" y="917" dy="0.5ex" text-anchor="end" font-family="sans-serif" font-size="145.16129032258064" opacity="1" fill="#666666">

</text>
<polyline fill="none" opacity="1" stroke="#666666" stroke-width="10" points="709,917 749,917 "/>
<text x="670" y="833" dy="0.5ex" text-anchor="end" font-family="sans-serif" font-size="145.16129032258064" opacity="1" fill="#666666">

</text>
<polyline fill="none" opacity="1" stroke="#666666" stroke-width="10" points="709,833 749,833 "/>
<text x="670" y="750" dy="0.5ex" text-anchor="end" font-family="sans-serif" font-size="145.16129032258064" opacity="1" fill="#666666">
6
</text>
<polyline fill="none" opacity="1" stroke="#666666" stroke-width="10" points="709,750 749,750 "/>
<text x="670" y="667" dy="0.5ex" text-anchor="end" font-family="sans-serif" font-size="145.16129032258064" opacity="1" fill="#666666">

</text>
<polyline fill="none" opacity="1" stroke="#666666" stroke-width="10" points="709,667 749,667 "/>
<text x="670" y="584" dy="0.5ex" text-anchor="end" font-family="sans-serif" font-size="145.16129032258064" opacity="1" fill="#666666">

</text>
<polyline fill="none" opacity="1" stroke="#666666" stroke-width="10" points="709,584 749,584 "/>
<text x="670" y="500" dy="0.5ex" text-anchor="end" font-family="sans-serif" font-size="145.16129032258064" opacity="1" fill="#666666">

</text>
<polyline fill="none" opacity="1" stroke="#666666" stroke-width="10" points="709,500 749,500 "/>
<text x="670" y="417" dy="0.5ex" text-anchor="end" font-family="sans-serif" font-size="145.16129032258064" opacity="1" fill="#666666">
8
</text>
<polyline fill="none" opacity="1" stroke="#666666" stroke-width="10" points="709,417 749,417 "/>
<text x="670" y="334" dy="0.5ex" text-anchor="end" font-family="sans-serif" font-size="145.16129032258064" opacity="1" fill="#666666">

</text>
<polyline fill="none" opacity="1" stroke="#666666" stroke-width="10" points="709,334 749,334 "/>
<text x="670" y="250" dy="0.5ex" text-anchor="end" font-family="sans-serif" font-size="145.16129032258064" opacity="1" fill="#666666">

</text>
<polyline fill="none" opacity="1" stroke="#666666" stroke-width="10" points="709,250 749,250 "/>
<text x="670" y="167" dy="0.5ex" text-anchor="end" font-family="sans-serif" font-size="145.16129032258064" opacity="1" fill="#666666">

</text>
<polyline fill="none" opacity="1" stroke="#666666" stroke-width="10" points="709,167 749,167 "/>
<polyline fill="none" opacity="1" stroke="#666666" stroke-width="10" points="750,1750 3499,1750 "/>
<rect x="795" y="1583" width="367" height="166" opacity="1" fill="#5E81B5" stroke="#000000" stroke-width="10"><title>1</title></rect>
<rect x="1253" y="917" width="367" height="832" opacity="1" fill="#5E81B5" stroke="#000000" stroke-width="10"><title>5</title></rect>
<rect x="1712" y="1250" width="366" height="499" opacity="1" fill="#5E81B5" stroke="#000000" stroke-width="10"><title>3</title></rect>
<rect x="2170" y="1083" width="366" height="666" opacity="1" fill="#5E81B5" stroke="#000000" stroke-width="10"><title>4</title></rect>
<rect x="2628" y="584" width="367" height="1165" opacity="1" fill="#5E81B5" stroke="#000000" stroke-width="10"><title>7</title></rect>
<rect x="3086" y="250" width="367" height="1499" opacity="1" fill="#5E81B5" stroke="#000000" stroke-width="10"><title>9</title></rect>
<line x1="710.0" y1="1750.0" x2="680.0" y2="1750.0" stroke="#666" stroke-width="10"/>
<line x1="710.0" y1="1416.7" x2="680.0" y2="1416.7" stroke="#666" stroke-width="10"/>
<line x1="710.0" y1="1083.3" x2="680.0" y2="1083.3" stroke="#666" stroke-width="10"/>
<line x1="710.0" y1="750.0" x2="680.0" y2="750.0" stroke="#666" stroke-width="10"/>
<line x1="710.0" y1="416.7" x2="680.0" y2="416.7" stroke="#666" stroke-width="10"/>
</svg>
<svg x="792" y="60" width="360" height="105" viewBox="0 0 3600 1050">
<rect width="3600" height="1050" fill="#ffffff"/>
<line x1="600.0" y1="750.0" x2="3400.0" y2="750.0" stroke="#666666" stroke-width="10"/>
<rect x="793.1" y="585.0" width="2413.8" height="30.0" fill="rgb(94,129,181)"/>
<circle cx="793.1" cy="600.0" r="35.0" fill="rgb(94,129,181)"/>
<circle cx="3206.9" cy="600.0" r="35.0" fill="rgb(94,129,181)"/>
<rect x="1396.6" y="435.0" width="1206.9" height="30.0" fill="rgb(224,147,44)"/>
<circle cx="1396.6" cy="450.0" r="35.0" fill="rgb(224,147,44)"/>
<circle cx="2603.4" cy="450.0" r="35.0" fill="rgb(224,147,44)"/>
<rect x="1094.8" y="285.0" width="603.4" height="30.0" fill="rgb(143,176,50)"/>
<circle cx="1094.8" cy="300.0" r="35.0" fill="rgb(143,176,50)"/>
<circle cx="1698.3" cy="300.0" r="35.0" fill="rgb(143,176,50)"/>
<line x1="612.1" y1="750.0" x2="612.1" y2="780.0" stroke="#666666" stroke-width="5"/>
<line x1="732.8" y1="750.0" x2="732.8" y2="780.0" stroke="#666666" stroke-width="5"/>
<line x1="853.4" y1="750.0" x2="853.4" y2="780.0" stroke="#666666" stroke-width="5"/>
<line x1="974.1" y1="750.0" x2="974.1" y2="780.0" stroke="#666666" stroke-width="5"/>
<line x1="1215.5" y1="750.0" x2="1215.5" y2="780.0" stroke="#666666" stroke-width="5"/>
<line x1="1336.2" y1="750.0" x2="1336.2" y2="780.0" stroke="#666666" stroke-width="5"/>
<line x1="1456.9" y1="750.0" x2="1456.9" y2="780.0" stroke="#666666" stroke-width="5"/>
<line x1="1577.6" y1="750.0" x2="1577.6" y2="780.0" stroke="#666666" stroke-width="5"/>
<line x1="1819.0" y1="750.0" x2="1819.0" y2="780.0" stroke="#666666" stroke-width="5"/>
<line x1="1939.7" y1="750.0" x2="1939.7" y2="780.0" stroke="#666666" stroke-width="5"/>
<line x1="2060.3" y1="750.0" x2="2060.3" y2="780.0" stroke="#666666" stroke-width="5"/>
<line x1="2181.0" y1="750.0" x2="2181.0" y2="780.0" stroke="#666666" stroke-width="5"/>
<line x1="2422.4" y1="750.0" x2="2422.4" y2="780.0" stroke="#666666" stroke-width="5"/>
<line x1="2543.1" y1="750.0" x2="2543.1" y2="780.0" stroke="#666666" stroke-width="5"/>
<line x1="2663.8" y1="750.0" x2="2663.8" y2="780.0" stroke="#666666" stroke-width="5"/>
<line x1="2784.5" y1="750.0" x2="2784.5" y2="780.0" stroke="#666666" stroke-width="5"/>
<line x1="3025.9" y1="750.0" x2="3025.9" y2="780.0" stroke="#666666" stroke-width="5"/>
<line x1="3146.6" y1="750.0" x2="3146.6" y2="780.0" stroke="#666666" stroke-width="5"/>
<line x1="3267.2" y1="750.0" x2="3267.2" y2="780.0" stroke="#666666" stroke-width="5"/>
<line x1="3387.9" y1="750.0" x2="3387.9" y2="780.0" stroke="#666666" stroke-width="5"/>
<line x1="1094.8" y1="750.0" x2="1094.8" y2="800.0" stroke="#666666" stroke-width="10"/>
<text x="1094.8" y="954.0" text-anchor="middle" font-family="sans-serif" font-size="140" fill="#666">2</text>
<line x1="1698.3" y1="750.0" x2="1698.3" y2="800.0" stroke="#666666" stroke-width="10"/>
<text x="1698.3" y="954.0" text-anchor="middle" font-family="sans-serif" font-size="140" fill="#666">4</text>
<line x1="2301.7" y1="750.0" x2="2301.7" y2="800.0" stroke="#666666" stroke-width="10"/>
<text x="2301.7" y="954.0" text-anchor="middle" font-family="sans-serif" font-size="140" fill="#666">6</text>
<line x1="2905.2" y1="750.0" x2="2905.2" y2="800.0" stroke="#666666" stroke-width="10"/>
<text x="2905.2" y="954.0" text-anchor="middle" font-family="sans-serif" font-size="140" fill="#666">8</text>
</svg>
</svg>
